<?xml version="1.0" encoding="iso-8859-1"?>
<!-- Generator: Adobe Illustrator 19.0.0, SVG Export Plug-In . SVG Version: 6.00 Build 0)  -->
<svg version="1.1" id="Layer_1" xmlns="http://www.w3.org/2000/svg" xmlns:xlink="http://www.w3.org/1999/xlink" x="0px" y="0px"
	 viewBox="0 0 512 512" style="enable-background:new 0 0 512 512;" xml:space="preserve">
<g>
	<g>
		<path d="M500.334,228.716c0,0-0.001,0-0.001-0.001l-70.858-70.857c-7.267-7.266-16.929-11.268-27.204-11.268
			c-10.277,0-19.938,4.001-27.205,11.268c-7.266,7.268-11.268,16.93-11.268,27.204v32.385h-69.324v-69.641h32.385
			c10.276,0,19.937-4.002,27.205-11.271c7.267-7.267,11.268-16.928,11.268-27.203c0-10.277-4.001-19.939-11.268-27.205
			l-70.858-70.858C275.938,4.002,266.278,0,256.001,0c-10.276,0-19.936,4.002-27.205,11.267l-70.857,70.858
			c-7.267,7.266-11.269,16.929-11.269,27.205c0,10.276,4.002,19.937,11.269,27.205c7.268,7.267,16.93,11.269,27.204,11.269h32.383
			v69.641h-69.324v-32.383c0-10.276-4.002-19.938-11.27-27.206c-7.267-7.266-16.928-11.267-27.203-11.267
			s-19.937,4.002-27.204,11.268l-70.86,70.858C4.4,235.983,0.399,245.645,0.399,255.92c0,10.276,4.001,19.937,11.268,27.203
			l70.858,70.858c7.267,7.266,16.928,11.268,27.204,11.268c10.277,0,19.938-4.001,27.205-11.268
			c7.266-7.267,11.268-16.929,11.268-27.204v-32.385h69.325v69.801h-32.383c-10.276,0-19.938,4.002-27.206,11.271
			c-7.266,7.267-11.267,16.929-11.267,27.203c0,10.277,4.001,19.939,11.268,27.205l70.858,70.858
			c7.268,7.266,16.929,11.268,27.204,11.268c10.277,0,19.937-4.002,27.204-11.266l70.857-70.858
			c7.267-7.266,11.269-16.929,11.269-27.205c0-10.276-4.002-19.938-11.269-27.205c-7.268-7.267-16.929-11.269-27.203-11.269h-32.385
			v-69.801h69.324v32.383c0,10.278,4.002,19.94,11.27,27.206c7.266,7.266,16.927,11.267,27.203,11.267
			c10.276,0,19.937-4.002,27.204-11.268l70.858-70.859c7.266-7.266,11.267-16.928,11.267-27.203S507.6,235.984,500.334,228.716z
			 M485.912,268.7l-70.858,70.858c-3.414,3.413-7.953,5.293-12.781,5.293c-4.828,0-9.367-1.879-12.781-5.292
			c-3.414-3.414-5.294-7.953-5.294-12.782v-42.583c0-5.632-4.566-10.199-10.199-10.199h-89.722c-5.633,0-10.199,4.567-10.199,10.199
			v90.2c0,5.632,4.566,10.199,10.199,10.199h42.584c4.827,0,9.366,1.88,12.781,5.293c3.414,3.414,5.293,7.954,5.293,12.782
			c0,4.828-1.88,9.367-5.294,12.781l-70.857,70.858c-3.414,3.413-7.953,5.293-12.782,5.293c-4.827,0-9.367-1.88-12.781-5.293
			l-70.858-70.858c-3.414-3.413-5.293-7.952-5.293-12.781c0-4.826,1.88-9.366,5.293-12.78c3.415-3.415,7.954-5.295,12.782-5.295v0
			h42.585c5.633,0,10.199-4.567,10.199-10.199v-90.2c0-5.632-4.566-10.199-10.199-10.199h-89.723
			c-5.633,0-10.199,4.567-10.199,10.199v42.584c0,4.827-1.881,9.366-5.293,12.781c-3.414,3.413-7.953,5.292-12.782,5.292
			s-9.367-1.88-12.782-5.293l-70.858-70.857c-3.414-3.414-5.293-7.953-5.293-12.781c0-4.828,1.88-9.368,5.292-12.782l70.858-70.858
			c3.415-3.413,7.953-5.293,12.782-5.293c4.827,0,9.366,1.879,12.78,5.291c3.415,3.415,5.295,7.955,5.295,12.783v42.583
			c0,5.632,4.566,10.199,10.199,10.199h89.722c5.633,0,10.199-4.567,10.199-10.199v-90.04c0-5.632-4.566-10.199-10.199-10.199
			h-42.583c-4.827,0-9.367-1.88-12.781-5.293c-3.415-3.414-5.294-7.954-5.294-12.782c0-4.828,1.88-9.367,5.294-12.781l70.856-70.858
			c3.415-3.413,7.954-5.293,12.782-5.293c4.828,0,9.368,1.881,12.781,5.293l70.857,70.859c3.414,3.413,5.293,7.952,5.293,12.781
			c0,4.827-1.88,9.366-5.293,12.78c-3.415,3.415-7.953,5.295-12.781,5.295h-42.584c-2.705,0-5.3,1.075-7.212,2.987
			c-1.912,1.913-2.987,4.507-2.987,7.212v90.04c0,5.632,4.566,10.199,10.199,10.199h89.722c5.633,0,10.199-4.567,10.199-10.199
			v-42.584c0-4.826,1.881-9.366,5.294-12.781c3.414-3.413,7.953-5.292,12.782-5.292c4.827,0,9.366,1.88,12.781,5.293l70.857,70.856
			c3.415,3.414,5.294,7.954,5.294,12.783C491.204,260.748,489.324,265.286,485.912,268.7z"/>
	</g>
</g>
<g>
	<g>
		<path d="M84.637,287.832l-1.13-1.13c-3.982-3.985-10.44-3.986-14.424-0.003s-3.985,10.44-0.003,14.424l1.13,1.13
			c1.992,1.993,4.603,2.989,7.214,2.989c2.609,0,5.219-0.994,7.21-2.986C88.618,298.273,88.619,291.816,84.637,287.832z"/>
	</g>
</g>
<g>
	<g>
		<path d="M63.954,267.148l-18.686-18.686c-3.984-3.982-10.442-3.982-14.425,0c-3.983,3.984-3.983,10.442,0,14.425l18.686,18.686
			c1.991,1.991,4.602,2.987,7.212,2.987c2.61,0,5.221-0.996,7.213-2.987C67.937,277.589,67.937,271.13,63.954,267.148z"/>
	</g>
</g>
<g>
</g>
<g>
</g>
<g>
</g>
<g>
</g>
<g>
</g>
<g>
</g>
<g>
</g>
<g>
</g>
<g>
</g>
<g>
</g>
<g>
</g>
<g>
</g>
<g>
</g>
<g>
</g>
<g>
</g>
</svg>
